<svg width="24" height="51" viewBox="0 0 24 51" fill="none" xmlns="http://www.w3.org/2000/svg">
<g clip-path="url(#clip0_9031_19699)">
<path d="M16.4591 6.19345C14.3513 3.70367 12.5363 1.17497 12.1655 0.649783C12.1264 0.61088 12.0679 0.61088 12.0288 0.649783C11.658 1.17497 9.84298 3.70367 7.73521 6.19345C-10.3565 29.1656 10.5846 44.6685 10.5846 44.6685L10.7603 44.7851C10.9164 47.1778 11.3067 50.6206 11.3067 50.6206H12.0874H12.868C12.868 50.6206 13.2584 47.1972 13.4145 44.7851L13.5901 44.6491C13.6097 44.6491 34.5508 29.1656 16.4591 6.19345ZM12.0874 44.3183C12.0874 44.3183 11.1506 43.5208 10.8969 43.1123V43.0735L12.0288 18.0588C12.0288 17.981 12.1459 17.981 12.1459 18.0588L13.2779 43.0735V43.1123C13.0242 43.5208 12.0874 44.3183 12.0874 44.3183Z" fill="#001E2B"/>
</g>
<defs>
<clipPath id="clip0_9031_19699">
<rect width="23.2558" height="50" fill="white" transform="translate(0.37207 0.620605)"/>
</clipPath>
</defs>
</svg>
