<svg width="24" height="22" viewBox="0 0 24 22" fill="none" xmlns="http://www.w3.org/2000/svg">
<path d="M10.9094 15.5092C11.3115 14.9798 12.1077 14.9798 12.5098 15.5092L15.9237 20.0032C16.4264 20.6649 15.9545 21.616 15.1235 21.616H8.29564C7.46467 21.616 6.99275 20.6649 7.49542 20.0032L10.9094 15.5092Z" fill="#575552"/>
<g clip-path="url(#clip0_8980_18937)">
<rect x="0.0927734" y="0.375244" width="23.2329" height="17.9527" rx="1.56822" fill="#575552"/>
<path d="M0.0927734 1.94346C0.0927734 1.07736 0.794888 0.375244 1.66099 0.375244H21.7575C22.6236 0.375244 23.3257 1.07736 23.3257 1.94346V4.48641H0.0927734V1.94346Z" fill="#696662"/>
<rect x="2.61768" y="7.39307" width="7.9391" height="1.56822" fill="#807C78"/>
<rect x="4.77393" y="11.0195" width="13.8199" height="1.56822" fill="#807C78"/>
</g>
<defs>
<clipPath id="clip0_8980_18937">
<rect x="0.0927734" y="0.375244" width="23.2329" height="17.9527" rx="1.56822" fill="white"/>
</clipPath>
</defs>
</svg>
